<?xml version="1.0" standalone="no"?>
<!DOCTYPE svg PUBLIC "-//W3C//DTD SVG 20010904//EN"
 "http://www.w3.org/TR/2001/REC-SVG-20010904/DTD/svg10.dtd">
<svg version="1.0" xmlns="http://www.w3.org/2000/svg"
 width="932.000000pt" height="932.000000pt" viewBox="0 0 932.000000 932.000000"
 preserveAspectRatio="xMidYMid meet">
<metadata>
Created by potrace 1.14, written by Peter Selinger 2001-2017
</metadata>
<g transform="translate(0.000000,932.000000) scale(0.100000,-0.100000)"
fill="#000000" stroke="none">
<path d="M4300 8950 c-421 -50 -830 -151 -1165 -287 -153 -62 -427 -198 -569
-283 -621 -369 -1161 -922 -1464 -1500 -147 -280 -261 -611 -291 -845 -34
-265 -38 -732 -7 -901 78 -429 264 -804 558 -1125 218 -238 486 -417 792 -529
232 -84 260 -90 540 -102 317 -14 477 -3 668 46 337 87 551 206 998 556 109
85 289 226 400 313 345 269 562 381 864 444 154 32 388 36 535 9 196 -36 408
-121 577 -231 118 -78 290 -251 373 -375 78 -118 171 -305 211 -427 82 -248
92 -742 20 -997 -76 -271 -210 -549 -363 -754 -416 -559 -1113 -989 -1858
-1147 -221 -46 -339 -56 -769 -62 -453 -6 -442 -4 -489 -78 -24 -38 -27 -51
-21 -86 12 -67 73 -118 162 -138 137 -31 663 -55 884 -41 739 47 1432 261
2012 622 382 237 790 598 1062 938 155 194 398 615 527 915 208 481 278 1093
182 1591 -70 367 -242 751 -457 1018 -76 94 -230 254 -330 342 -365 320 -906
514 -1437 515 -238 0 -477 -43 -745 -136 -309 -107 -467 -208 -965 -615 -416
-340 -549 -437 -692 -502 -173 -79 -405 -123 -603 -115 -161 6 -252 27 -375
88 -251 124 -426 333 -507 607 -22 72 -23 94 -23 362 l0 285 44 125 c97 278
248 539 416 718 213 227 601 494 870 600 498 195 934 270 1417 244 550 -31
1109 -177 1583 -414 252 -126 614 -368 835 -557 187 -161 412 -398 549 -579
48 -64 111 -139 140 -165 46 -43 55 -48 84 -42 90 19 146 99 133 188 -13 85
-193 408 -372 667 -281 408 -687 819 -1092 1106 -519 368 -1193 628 -1863 718
-298 40 -714 47 -979 16z"/>
<path d="M613 4201 c-91 -57 -84 -167 28 -448 172 -434 479 -928 785 -1263
400 -439 956 -797 1544 -994 382 -128 679 -176 1095 -176 217 0 516 17 620 35
303 52 620 162 849 293 269 153 562 419 700 635 90 140 159 312 196 487 20 90
22 124 18 289 -4 177 -6 190 -37 281 -81 238 -214 413 -400 527 -156 95 -286
128 -501 128 -149 -1 -194 -8 -334 -51 -167 -53 -281 -123 -692 -428 -278
-207 -385 -276 -569 -369 -315 -159 -561 -225 -927 -249 -325 -22 -627 15
-886 108 -151 54 -416 181 -527 254 -171 112 -360 279 -497 438 -105 121 -137
168 -219 311 -108 192 -170 240 -246 192z"/>
</g>
</svg>
